<?xml version="1.0" encoding="UTF-8" standalone="no"?>
<!-- Created with Inkscape (http://www.inkscape.org/) -->

<svg
   width="16mm"
   height="15.999992mm"
   viewBox="0 0 60.472442 60.472413"
   version="1.1"
   id="svg5"
   inkscape:version="1.2.2 (1:1.2.2+202212051550+b0a8486541)"
   sodipodi:docname="icon-versao1.0.0.svg"
   xml:space="preserve"
   xmlns:inkscape="http://www.inkscape.org/namespaces/inkscape"
   xmlns:sodipodi="http://sodipodi.sourceforge.net/DTD/sodipodi-0.dtd"
   xmlns="http://www.w3.org/2000/svg"
   xmlns:svg="http://www.w3.org/2000/svg"><sodipodi:namedview
     id="namedview7"
     pagecolor="#ffffff"
     bordercolor="#666666"
     borderopacity="1.0"
     inkscape:showpageshadow="2"
     inkscape:pageopacity="0.0"
     inkscape:pagecheckerboard="0"
     inkscape:deskcolor="#d1d1d1"
     inkscape:document-units="mm"
     showgrid="false"
     inkscape:zoom="2.8284271"
     inkscape:cx="-1726.578"
     inkscape:cy="2898.7843"
     inkscape:window-width="1862"
     inkscape:window-height="1043"
     inkscape:window-x="58"
     inkscape:window-y="0"
     inkscape:window-maximized="1"
     inkscape:current-layer="layer1"
     showguides="true"><sodipodi:guide
       position="651.04992,2758.3756"
       orientation="1,0"
       id="guide1704"
       inkscape:locked="false" /><sodipodi:guide
       position="651.04992,2758.3756"
       orientation="0,-1"
       id="guide1706"
       inkscape:locked="false" /></sodipodi:namedview><defs
     id="defs2" /><g
     inkscape:label="Layer 1"
     inkscape:groupmode="layer"
     id="layer1"
     transform="translate(-189.43452,-1506.2502)"><g
       id="g4"
       transform="matrix(0.17631737,0,0,0.17631737,493.04061,1494.4251)"
       inkscape:export-filename="logo/exported/logo-64px.png"
       inkscape:export-xdpi="101.6"
       inkscape:export-ydpi="101.6"><g
         id="g3"
         transform="translate(78.627118,-218.80325)"><circle
           style="fill:#ffffff;stroke:#000000;stroke-width:11.5843;stroke-dasharray:none"
           id="circle1"
           cx="-1629.0692"
           cy="457.3577"
           r="165.69533" /><path
           style="fill:#000000;stroke:#000000;stroke-width:1px;stroke-linecap:butt;stroke-linejoin:miter;stroke-opacity:1"
           d="m -1557.8438,343.67348 29.7694,37.4517 -91.9631,73.1923 -2.7063,-74.5915 11.0519,0.014 2.0328,42.9566 6.9007,0.9275 0.9175,-86.2225 -8.782,-0.6602 -1.175,31.6546 -11.3073,-1.4639 c -2.5802,-65.9844 -3.6332,-81.5118 -9.4633,-0.056 l -7.3465,-0.3319 0.141,-30.0626 -11.4258,-0.02 0.1134,80.7276 9.1936,-0.044 0.9825,-37.1433 7.0927,-0.05 -4.79,82.5383 8.5297,10.8292 111.8728,-78.2631 19.1377,31.8107 10.5541,-8.2703 -60.4618,-81.568 z"
           id="path1"
           sodipodi:nodetypes="cccccccccccccccccccccccccc" /><path
           style="fill:#cccccc;stroke:#000000;stroke-width:1px;stroke-linecap:butt;stroke-linejoin:miter;stroke-opacity:1"
           d="m -1619.5655,383.58548 11.0519,0.014 2.0328,42.9566 6.9007,0.9275 0.9175,-86.2225 -8.782,-0.6602 -1.175,31.6546 -11.3073,-1.4639 -9.4633,-0.056 -7.3465,-0.3319 0.141,-30.0626 -11.4258,-0.02 0.1134,80.7276 9.1936,-0.044 0.9825,-37.1433 7.0927,-0.05 c 3.5255,1.0962 11.3799,3.4534 11.0738,-0.2259 z"
           id="path2"
           sodipodi:nodetypes="ccccccccccccccccc" /><path
           style="fill:#b3b3b3;stroke:#000000;stroke-width:1px;stroke-linecap:butt;stroke-linejoin:miter;stroke-opacity:1"
           d="m -1553.3629,343.40238 29.7695,37.4517 -91.9631,73.1923 -18.5701,8.1727 8.5297,10.8292 111.8727,-78.2631 19.1378,31.8107 10.5541,-8.2703 -60.4618,-81.568 z"
           id="path3"
           sodipodi:nodetypes="cccccccccc" /></g></g></g></svg>
